<?xml version="1.0" encoding="UTF-8" standalone="no"?>
<!-- Created with Inkscape (http://www.inkscape.org/) -->

<svg
   xmlns:dc="http://purl.org/dc/elements/1.1/"
   xmlns:cc="http://creativecommons.org/ns#"
   xmlns:rdf="http://www.w3.org/1999/02/22-rdf-syntax-ns#"
   xmlns:svg="http://www.w3.org/2000/svg"
   xmlns="http://www.w3.org/2000/svg"
   xmlns:sodipodi="http://sodipodi.sourceforge.net/DTD/sodipodi-0.dtd"
   xmlns:inkscape="http://www.inkscape.org/namespaces/inkscape"
   width="210mm"
   height="297mm"
   id="svg2"
   version="1.1"
   inkscape:version="0.48.3.1 r9886"
   sodipodi:docname="Nouveau document 1">
  <defs
     id="defs4" />
  <sodipodi:namedview
     id="base"
     pagecolor="#ffffff"
     bordercolor="#666666"
     borderopacity="1.0"
     inkscape:pageopacity="0.0"
     inkscape:pageshadow="2"
     inkscape:zoom="0.97702646"
     inkscape:cx="372.04724"
     inkscape:cy="806.58384"
     inkscape:document-units="px"
     inkscape:current-layer="layer1"
     showgrid="false"
     inkscape:window-width="874"
     inkscape:window-height="717"
     inkscape:window-x="484"
     inkscape:window-y="22"
     inkscape:window-maximized="0" />
  <metadata
     id="metadata7">
    <rdf:RDF>
      <cc:Work
         rdf:about="">
        <dc:format>image/svg+xml</dc:format>
        <dc:type
           rdf:resource="http://purl.org/dc/dcmitype/StillImage" />
        <dc:title></dc:title>
      </cc:Work>
    </rdf:RDF>
  </metadata>
  <g
     inkscape:label="Calque 1"
     inkscape:groupmode="layer"
     id="layer1">
    <path
       style="fill:none;stroke:#000000;stroke-width:1px;stroke-linecap:butt;stroke-linejoin:miter;stroke-opacity:1"
       d="m 34.799467,140.41145 c 0,-1.70586 0,-3.41171 0,-5.11757 0.341171,-0.68234 0.898097,-1.29453 1.023514,-2.04703 0.754578,-4.52747 -1.032128,-3.05762 1.023513,-6.14108 0.946239,-1.41936 2.471575,-2.49681 3.070542,-4.09406 0.479172,-1.27779 -0.192996,-2.74308 0,-4.09405 0.152576,-1.06803 0.811928,-2.01261 1.023513,-3.07054 0.133819,-0.66909 -0.165492,-1.38506 0,-2.04703 0.655539,-2.62215 2.410475,-2.87279 4.094055,-5.11757 0.409406,-0.54587 -0.215775,-1.3997 0,-2.04702 1.024519,-3.07356 3.437399,-3.3408 5.117569,-6.14109 0.351062,-0.585101 -0.409406,-1.501151 0,-2.047025 0.738066,-0.984088 2.200722,-1.177208 3.070541,-2.047027 0.683274,-0.683274 -0.683274,-1.363754 0,-2.047028 0.869819,-0.869819 2.200722,-1.177208 3.070541,-2.047027 0.241245,-0.241245 -0.204703,-0.750577 0,-1.023514 0.86848,-1.157973 2.202061,-1.912567 3.070541,-3.070541 0.204703,-0.272937 -0.283871,-0.834266 0,-1.023514 1.023514,-0.341171 2.047028,-0.682342 3.070542,-1.023513 0,-0.341172 -0.241245,-0.78227 0,-1.023514 0.241244,-0.241245 0.782269,0.241244 1.023513,0 0.241245,-0.241245 0,-0.682343 0,-1.023514 0,-0.682342 0,-1.364685 0,-2.047027 0,-2.388199 0,-4.776398 0,-7.164596 0,-0.682343 0,-1.364685 0,-2.047028 0,-0.682342 -0.305153,-1.436722 0,-2.047027 0.152577,-0.305153 0.915626,0.323663 1.023514,0 0.323664,-0.970991 -0.168265,-2.060954 0,-3.070542 0.177367,-1.064198 0.811928,-2.012614 1.023514,-3.070541 0.133818,-0.669092 -0.215776,-1.3997 0,-2.047027 0.305153,-0.915459 1.615476,-1.183925 2.047027,-2.047028 1.260433,-2.520864 -2.970989,0.923962 1.023514,-3.070541 0.241244,-0.241244 0.870937,0.305153 1.023514,0 0.305153,-0.610306 -0.305153,-1.436722 0,-2.047027 0.152576,-0.305153 0.718361,0.152576 1.023513,0 2.450901,-1.225451 -0.645011,-2.047028 2.047028,-2.047028 2.85956,2.42027 6.182181,0.417625 9.211623,1.023514 0.748068,0.149613 1.364685,0.682342 2.047028,1.023514 1.364685,0.341171 2.695973,0.868171 4.094055,1.023513 1.695423,0.188381 3.422146,-0.18838 5.117569,0 1.398081,0.155343 2.729369,0.682343 4.094054,1.023514 2.388199,0.341171 4.764126,0.783467 7.164596,1.023514 1.92742,0.192742 4.23489,-0.3177 6.14108,0 1.71597,0.285995 3.4016,0.737519 5.11757,1.023514 1.34612,0.224352 2.74309,-0.192996 4.09406,0 1.39254,0.198935 2.70651,0.792256 4.09405,1.023513 0.67306,0.112177 1.36469,0 2.04703,0 3.07054,0 6.14108,0 9.21162,0 1.36469,0 2.72937,0 4.09406,0 0.68234,0 1.43672,-0.305153 2.04702,0 0.30516,0.152577 -0.33454,0.956605 0,1.023514 1.67273,0.334546 3.41172,0 5.11757,0 1.02352,0 2.04703,0 3.07054,0 -4.39153,8.783072 0.66917,0.354352 -5.11756,6.141082 -1.82525,1.825249 -0.56199,2.80991 -1.02352,5.117569 -0.29922,1.496135 -1.56454,2.646588 -2.04703,4.094055 -0.10788,0.323663 0.15258,0.718361 0,1.023514 -0.21577,0.431551 -0.84432,0.575534 -1.02351,1.023513 -0.52243,1.306075 -0.74764,2.714687 -1.02351,4.094055 -0.0669,0.334546 0.24124,0.78227 0,1.023514 -0.24125,0.241245 -0.68235,0 -1.02352,0 -1.02351,1.364685 -2.30766,2.568291 -3.07054,4.094055 -0.30515,0.610306 0.16549,1.385058 0,2.047027 -0.18502,0.740105 -0.83849,1.306924 -1.02351,2.047028 -0.16549,0.661969 0.21577,1.3997 0,2.047027 -0.30515,0.915459 -1.74188,1.131569 -2.04703,2.047028 -0.21577,0.647327 0.21578,1.3997 0,2.047027 -0.15258,0.45773 -0.64675,0.722106 -1.02351,1.023514 -1.33205,1.065641 -3.14782,1.651181 -4.09406,3.070541 -0.56774,0.85162 0.20073,2.0669 0,3.07054 -0.82375,4.11874 -0.74688,0.47026 -2.04702,3.07054 -0.15258,0.30516 0.10788,0.69985 0,1.02352 -2.47125,7.41373 0.29508,-1.61368 -2.04703,3.07054 -0.34117,1.02351 -0.68234,2.04703 -1.02352,3.07054 0,0.34117 0.10789,0.69985 0,1.02351 -0.24124,0.72374 -0.78227,1.3233 -1.02351,2.04703 -0.10789,0.32366 0.10789,0.69985 0,1.02351 -0.24124,0.72374 -0.60034,1.41227 -1.02351,2.04703 -0.26764,0.40146 -0.87094,0.56579 -1.02352,1.02351 -0.21577,0.64733 0.21578,1.39971 0,2.04703 -0.15257,0.45773 -0.80774,0.59196 -1.02351,1.02352 -1.26043,2.52086 2.97099,-0.92397 -1.02351,3.07054 -0.86982,0.86982 -2.33248,1.06294 -3.07055,2.04702 -0.4094,0.54588 0.40941,1.50116 0,2.04703 -0.73806,0.98409 -2.33247,1.06294 -3.07054,2.04703 -0.4094,0.54587 0.21578,1.3997 0,2.04703 -0.15257,0.45773 -0.75587,0.62206 -1.02351,1.02351 -0.42317,0.63476 -0.68234,1.36469 -1.02351,2.04703 -0.34118,0.68234 -0.68235,1.36468 -1.02352,2.04703 0,0.34117 0.15258,0.71836 0,1.02351 -0.21577,0.43155 -0.87094,0.56578 -1.02351,1.02351 -0.21578,0.64733 0,1.36469 0,2.04703 0,0.34117 0.15257,0.71836 0,1.02351 -1.506,3.01201 -1.02352,-1.58878 -1.02352,3.07055 -12.998286,-1e-5 -7.578643,0.736 -16.376215,-1.02352 -1.705857,-0.34117 -3.386564,-0.85041 -5.117569,-1.02351 -10.010084,0 -0.588156,0.41373 -9.211624,-1.02352 -2.865838,-0.47764 -3.582298,1.1941 -7.164596,0 -0.723733,-0.24124 -0.315195,-1.7637 -1.023513,-2.04702 -0.448837,-0.17954 -7.546234,0.17505 -8.18811,0 -2.50673,-0.68366 -4.681212,-2.30643 -7.164596,-3.07054 -1.983494,-0.61031 -4.099293,-0.65228 -6.141083,-1.02352 -7.469327,-1.35806 -2.712087,-1.02351 -10.235137,-1.02351 z"
       id="path2985"
       inkscape:connector-curvature="0" />
    <path
       style="fill:none;stroke:#000000;stroke-width:1px;stroke-linecap:butt;stroke-linejoin:miter;stroke-opacity:1"
       d="m 34.799467,140.41145 c 2.047027,1.70585 3.893034,3.68699 6.141082,5.11757 3.328612,2.1182 5.013326,1.65952 8.18811,3.07054 16.926068,7.52269 -4.37872,-0.94094 12.282165,5.11757 1.726648,0.62787 3.428857,1.32329 5.117569,2.04702 4.64439,1.99046 0.414702,1.38731 9.211623,4.09406 1.983494,0.6103 4.078512,0.79434 6.141082,1.02351 1.017254,0.11303 2.099551,-0.32366 3.070542,0 0.323663,0.10789 -0.330985,0.94077 0,1.02352 1.323939,0.33098 2.781877,-0.37491 4.094055,0 1.18278,0.33793 1.970297,1.4969 3.070541,2.04702 0.305153,0.15258 0.718361,-0.15257 1.023514,0 0.431551,0.21578 0.55543,0.9065 1.023513,1.02352 0.992954,0.24824 2.047028,0 3.070541,0 0.341172,0 0.870938,-0.30515 1.023514,0 0.305153,0.6103 -0.305153,1.43672 0,2.04703 0.152577,0.30515 0.682343,0 1.023514,0 1.095458,0 4.676118,-0.29431 5.117568,0 0.56774,0.37849 -0.54587,1.63762 0,2.04702 1.12535,0.84401 2.75956,0.57868 4.09406,1.02352 0.72373,0.24124 1.32329,0.78227 2.04702,1.02351 0.32367,0.10789 0.71836,-0.15258 1.02352,0 0.8631,0.43155 1.18392,1.61548 2.04702,2.04703 0.30516,0.15257 0.68235,0 1.02352,0 0.34117,0 0.68234,0 1.02351,0 0.27167,-0.32213 -0.3077,-7.77784 0,-8.18811 0.73807,-0.98409 2.43766,-0.99222 3.07054,-2.04703 0.5266,-0.87766 -0.24824,-2.07759 0,-3.07054 0.11702,-0.46808 0.75588,-0.62206 1.02352,-1.02351 0.42317,-0.63476 0.60034,-1.41228 1.02351,-2.04703 0.94624,-1.41936 2.39857,-2.52613 3.07054,-4.09406 1.29466,-1.15459 -0.43155,-2.7994 0,-4.09405 1.05193,-3.15578 2.20811,-2.36919 4.09406,-6.14108 0.30515,-0.61031 0,-1.36469 0,-2.04703 0,-2.14405 -0.28131,-4.18385 1.02351,-6.14108 0.80291,-1.20437 2.20206,-1.91257 3.07054,-3.07055 0.2047,-0.27293 -0.24124,-0.78226 0,-1.02351 0.86982,-0.86982 2.20072,-1.17721 3.07054,-2.04703 0.48249,-0.48249 -0.37849,-1.47928 0,-2.04702 1.07055,-1.60582 3.02351,-2.48824 4.09406,-4.09406 0.23466,-0.35199 -0.22438,-2.84616 0,-3.07054 1.73964,-1.73964 4.40144,-2.35442 6.14108,-4.09405 0.12407,-0.12407 -0.10505,-1.62681 0,-2.04703 0.26167,-1.04667 0.54102,-2.10557 1.02351,-3.07054 0.21578,-0.43155 0.75588,-0.62206 1.02352,-1.02352 0.42317,-0.63475 0.48407,-1.50759 1.02351,-2.04702 0.86982,-0.86982 2.33248,-1.06294 3.07054,-2.04703 0.40941,-0.54588 0,-1.36469 0,-2.04703 0,-0.81672 -0.20468,-4.503518 0,-5.117568 0.24125,-0.723734 0.83849,-1.306924 1.02352,-2.047028 0.16549,-0.661969 0,-1.364685 0,-2.047027 0.34117,-0.682343 0.78227,-1.323294 1.02351,-2.047028 0.21578,-0.647327 0,-1.364685 0,-2.047027 0,-1.705856 0,-3.411713 0,-5.117569"
       id="path2987"
       inkscape:connector-curvature="0" />
    <path
       style="fill:none;stroke:#000000;stroke-width:1px;stroke-linecap:butt;stroke-linejoin:miter;stroke-opacity:1"
       d="m 144.31544,77.977111 c 7.12569,-0.860711 2.18506,2.627804 5.11756,4.094055 0.4657,0.232848 4.89442,-0.05579 5.11757,0 0.93617,0.234041 1.18393,1.615476 2.04703,2.047027 0.30515,0.152577 0.68234,0 1.02351,0 0.34118,0 0.68235,0 1.02352,0"
       id="path2989"
       inkscape:connector-curvature="0" />
    <path
       style="fill:none;stroke:#000000;stroke-width:1px;stroke-linecap:butt;stroke-linejoin:miter;stroke-opacity:1"
       d="m 60.38731,109.70604 c 0,1.02351 -1.023514,3.07054 0,3.07054 1.023514,0 0,-2.04703 0,-3.07054 0,-3.07054 0,-6.14109 0,-9.21163 0,-1.023511 -0.144747,-2.057311 0,-3.070538 0.198935,-1.392548 0.682343,-2.72937 1.023514,-4.094055 0.682342,2.047027 1.082049,4.211126 2.047027,6.141082 0.152577,0.305153 0.682343,0 1.023514,0 1.705856,0 3.411712,0 5.117569,0 1.023513,0 2.218926,0.567741 3.070541,0 0.567743,-0.378495 -0.215776,-1.3997 0,-2.047027 0.391898,-1.175694 2.443563,-1.42005 3.070541,-2.047028 0.241245,-0.241244 0,-1.364685 0,-1.023514 0,5.45874 0,10.91748 0,16.37622"
       id="path2991"
       inkscape:connector-curvature="0" />
    <path
       style="fill:none;stroke:#000000;stroke-width:1px;stroke-linecap:butt;stroke-linejoin:miter;stroke-opacity:1"
       d="m 89.045695,99.470899 c 2.047027,0 4.094055,0 6.141082,0 0.341171,0 0.870937,0.305153 1.023514,0 0.305153,-0.610306 0,-1.364685 0,-2.047027 0,-0.682343 0.482489,-1.564539 0,-2.047028 -0.482489,-0.482489 -1.364685,0 -2.047028,0 -0.341171,0 -0.757103,-0.213128 -1.023513,0 -1.507043,1.205634 -2.72937,5.458736 -4.094055,4.094055 -1.406685,-1.406685 2.331714,-3.270501 3.070541,-5.117569 0.126708,-0.316769 -0.682343,0 -1.023514,0 -0.341171,0 -0.682342,0 -1.023514,0 -1.023513,0 -2.047027,0 -3.070541,0 -0.248229,0 -3.037625,-0.03292 -3.070541,0 -0.241245,0.241245 0,0.682343 0,1.023514 0,0.682343 0.305153,1.436722 0,2.047028 -0.152576,0.305152 -0.782269,-0.241245 -1.023514,0 -0.241244,0.241244 0,0.682342 0,1.023513 0,0.682343 0,1.364685 0,2.047025 0,0.58975 -0.186523,4.74453 0,5.11757 2.12981,4.25962 -0.07066,-1.09417 2.047028,1.02352 0.539439,0.53943 0.315195,1.7637 1.023513,2.04702 0.668007,0.26721 6.492008,0 8.18811,0"
       id="path2993"
       inkscape:connector-curvature="0" />
    <path
       style="fill:none;stroke:#000000;stroke-width:1px;stroke-linecap:butt;stroke-linejoin:miter;stroke-opacity:1"
       d="m 103.37489,93.329817 c 0,3.070541 0,6.141082 0,9.211623 0,0.68234 0,2.72937 0,2.04703 0,-1.60222 -0.0416,-11.196309 0,-11.258653 0.75699,-1.135487 2.82697,-0.506832 4.09405,0 1.98869,0.795475 0.66011,1.980324 1.02352,3.070541 2.89945,5.798912 -0.38145,-1.525764 1.02351,4.094052 0.34117,0.68235 0.68234,1.36469 1.02351,2.04703 0.34117,0 0.83427,-0.28387 1.02352,0 0.59845,0.89768 0.68234,2.04703 1.02351,3.07054"
       id="path2995"
       inkscape:connector-curvature="0" />
    <path
       style="fill:none;stroke:#000000;stroke-width:1px;stroke-linecap:butt;stroke-linejoin:miter;stroke-opacity:1"
       d="m 115.65705,93.329817 c 18.25645,2.608064 3.3359,2.426106 8.18811,0 0.96498,-0.482489 2.30766,-0.260632 3.07054,-1.023514 0.48249,-0.482489 0,-1.364685 0,-2.047028 0,-2.729369 0,-5.458739 0,-8.188109"
       id="path2997"
       inkscape:connector-curvature="0" />
    <path
       style="fill:none;stroke:#000000;stroke-width:1px;stroke-linecap:butt;stroke-linejoin:miter;stroke-opacity:1"
       d="m 47.081632,222.29255 c 0,6.82342 0,13.64685 0,20.47027 0,1.02352 0.248238,2.07759 0,3.07054 -0.185026,0.74011 -0.873901,1.29896 -1.023514,2.04703 -0.200728,1.00364 0,2.04703 0,3.07054 0,1.36469 0,2.72937 0,4.09406 0,5.79991 0,11.59982 0,17.39973 0,14.67036 0,29.34073 0,44.01109 2.047027,1.36468 3.892904,3.09486 6.141082,4.09405 0.935299,0.41569 2.099551,-0.32366 3.070541,0 0.323664,0.10789 -0.241244,0.78227 0,1.02352 0.241245,0.24124 0.706745,-0.12671 1.023514,0 1.416637,0.56665 2.873444,1.13157 4.094055,2.04703 0.272937,0.2047 -0.283872,0.83426 0,1.02351 0.897681,0.59845 2.068828,0.62283 3.070541,1.02351 0.708319,0.28333 1.323294,0.78227 2.047028,1.02352 0.323663,0.10789 0.782269,-0.24125 1.023514,0 0.241244,0.24124 -0.323664,0.91562 0,1.02351 0.97099,0.32366 2.09955,-0.32366 3.070541,0 0.323663,0.10789 -0.241245,0.78227 0,1.02351 0.241244,0.24125 0.782269,-0.24124 1.023513,0 0.241245,0.24125 -0.241244,0.78227 0,1.02352 0.241245,0.24124 0.682343,0 1.023514,0 0.341171,0 0.682343,0 1.023514,0 3.257122,-1.56122 6.889678,0.66909 10.235137,0 0.748068,-0.14961 1.323294,-0.78227 2.047028,-1.02352 0.323663,-0.10788 0.69985,0.10789 1.023513,0 0.723734,-0.24124 1.29896,-0.8739 2.047028,-1.02351 1.003638,-0.20073 2.066903,0.20073 3.070541,0 0.748067,-0.14961 1.338709,-0.74019 2.047028,-1.02351 1.001713,-0.40069 2.023875,-0.76185 3.070541,-1.02352 0.330984,-0.0827 0.718361,0.15258 1.023513,0 1.100245,-0.55012 1.903556,-1.65803 3.070546,-2.04702 0.97099,-0.32367 2.07758,0.24823 3.07054,0 0.46808,-0.11702 0.59196,-0.80774 1.02351,-1.02352 0.61031,-0.30515 1.43672,0.30516 2.04703,0 0.43155,-0.21577 0.59196,-0.80774 1.02351,-1.02351 0.30515,-0.15258 0.78227,0.24124 1.02352,0 0.53943,-0.53944 0.60034,-1.41227 1.02351,-2.04703 0.26764,-0.40145 0.87094,-0.56578 1.02351,-1.02351 0.21578,-0.64733 0,-1.36469 0,-2.04703 0,-0.68234 0,-1.36468 0,-2.04703"
       id="path2999"
       inkscape:connector-curvature="0" />
    <path
       style="fill:none;stroke:#000000;stroke-width:1px;stroke-linecap:butt;stroke-linejoin:miter;stroke-opacity:1"
       d="m 112.58651,318.50284 c 1.36469,0 4.09406,-1.36469 4.09406,0 0,1.36468 -5.38871,-0.43155 -4.09406,0 2.28865,0.76288 4.90575,0.17645 7.1646,1.02351 0.71431,0.26787 0.38875,1.62386 1.02351,2.04703 0.56774,0.37849 1.41986,-0.26879 2.04703,0 1.8285,0.78364 3.33823,2.18087 5.11757,3.07054 1.92995,0.96498 4.21112,1.08205 6.14108,2.04703 0.43155,0.21577 0.57553,0.84432 1.02351,1.02351 1.30608,0.52243 2.78798,0.50109 4.09406,1.02351 0.44798,0.1792 0.55543,0.9065 1.02351,1.02352 0.99296,0.24824 2.09955,-0.32366 3.07054,0 0.32367,0.10789 -0.24124,0.78227 0,1.02351 0.24125,0.24125 0.68234,0 1.02352,0 1.1212,0 4.04238,-0.10334 4.09405,0 0.30515,0.61031 0,1.36469 0,2.04703 -3.6338,-13.07355 3.57285,-2.54934 5.11757,-4.09406 0.24124,-0.24124 -0.33099,-0.94076 0,-1.02351 1.32394,-0.33098 2.77012,0.33099 4.09405,0 1.48021,-0.37005 2.69166,-1.446 4.09406,-2.04703 1.70713,-0.73162 5.54152,-1.72241 7.1646,-2.04702 0.33454,-0.0669 0.68234,0 1.02351,0 2.07245,0 2.16754,0.0827 5.11757,-1.02352 1.42862,-0.53573 2.62699,-1.62787 4.09405,-2.04703 1.96827,-0.56236 4.15518,0.49648 6.14109,0 0.46808,-0.11702 0.59196,-0.80773 1.02351,-1.02351 0.30515,-0.15258 0.68234,0 1.02351,0 0.34117,0 0.68235,0 1.02352,0 1.02351,-1.70586 2.37203,-3.25488 3.07054,-5.11757 0.35938,-0.95834 0,-2.04702 0,-3.07054 0,-2.3882 0,-4.7764 0,-7.16459 0,-6.82343 0,-13.64685 0,-20.47028 0,-23.92163 0,-42.9943 0,-67.55191 -1.70586,0.68234 -3.43866,1.30085 -5.11757,2.04703 -1.39426,0.61967 -2.64659,1.56454 -4.09406,2.04703 -3.07054,1.02351 -1.02351,-0.51176 -3.07054,0 -1.04666,0.26167 -2.00634,0.84615 -3.07054,1.02351 -1.00959,0.16827 -2.21892,-0.56774 -3.07054,0 -0.56774,0.3785 0.56774,1.66854 0,2.04703 -0.85161,0.56774 -2.04703,0 -3.07054,0 -2.3882,0 -4.7764,0 -7.1646,0 -1.02351,0 -2.09955,-0.32366 -3.07054,0 -0.32366,0.10789 0.24125,0.78227 0,1.02351 -0.24124,0.24125 -0.71836,-0.15257 -1.02351,0 -0.43155,0.21578 -0.59196,0.80774 -1.02352,1.02352 -1.28748,0.64374 -2.04702,-1.46997 -2.04702,1.02351"
       id="path3001"
       inkscape:connector-curvature="0" />
    <path
       style="fill:none;stroke:#000000;stroke-width:1px;stroke-linecap:butt;stroke-linejoin:miter;stroke-opacity:1"
       d="m 151.48003,226.3866 c -2.04703,-0.68234 -4.02523,-1.62385 -6.14108,-2.04703 -1.36469,0 -2.72937,0 -4.09406,0 0,-0.34117 0.32367,-0.91562 0,-1.02351 -0.97099,-0.32366 -2.21892,0.56774 -3.07054,0 -0.56774,-0.37849 0.56775,-1.66853 0,-2.04703 -0.85161,-0.56774 -2.09955,0.32367 -3.07054,0 -3.90218,5.52411 -2.91862,-2.96926 -3.07054,-3.07054 -0.72456,-3.12075 -2.83588,-0.39442 -4.09405,-1.02351 -1.10025,-0.55012 -1.9703,-1.49691 -3.07054,-2.04703 -0.30516,-0.15258 -0.73965,0.18925 -1.02352,0 -0.80291,-0.53527 -1.21956,-1.55055 -2.04703,-2.04703 -0.92513,-0.55508 -2.17286,-0.42506 -3.07054,-1.02351 -0.28387,-0.18925 0,-0.68234 0,-1.02351 -0.34117,-0.34118 -0.59196,-0.80774 -1.02351,-1.02352 -0.61031,-0.30515 -1.43672,0.30515 -2.04703,0 -0.43155,-0.21577 -0.55543,-0.90649 -1.02351,-1.02351 -1.32394,-0.33099 -2.72937,0 -4.09406,0 -2.10993,2.81018 -4.82277,-0.46837 -7.16459,0 -1.37937,0.27587 -2.70151,0.82458 -4.094058,1.02351 -1.013227,0.14475 -2.099551,-0.32366 -3.070541,0 -0.323664,0.10789 0.241244,0.78227 0,1.02352 -0.241245,0.24124 -0.718361,-0.15258 -1.023514,0 -0.431551,0.21577 -0.591962,0.80773 -1.023514,1.02351 -0.305153,0.15258 -0.692529,-0.0828 -1.023513,0 -1.046666,0.26167 -2.023876,0.76185 -3.070542,1.02351 -0.330984,0.0828 -0.782269,-0.24124 -1.023513,0 -0.241245,0.24125 0.241244,0.78227 0,1.02352 -1.364685,1.36468 -0.982123,-2.1712 -2.047028,1.02351 -0.215776,0.64733 0.165492,1.38506 0,2.04703 -0.185026,0.7401 -0.782269,1.32329 -1.023514,2.04703 -0.107887,0.32366 0.241245,0.78226 0,1.02351 -0.241244,0.24124 -0.870937,-0.30515 -1.023513,0 -0.976408,1.95281 1.172913,1.97233 -1.023514,3.07054 -0.305153,0.15258 -0.682343,0 -1.023514,0 -0.341171,0 -0.682342,0 -1.023514,0 -1.364684,0 -2.755871,-0.26764 -4.094054,0 -1.264759,1.26476 -0.541025,1.02351 -2.047028,1.02351 -2.047027,-0.68234 -4.094055,-1.36468 -6.141082,-2.04702 -1.023514,-0.34117 -2.047028,-0.68235 -3.070541,-1.02352 0,-0.34117 0.241244,-0.78227 0,-1.02351 -0.241245,-0.24125 -0.682343,0 -1.023514,0 -0.682343,0 -1.413489,0.25341 -2.047028,0 -1.142129,-0.45685 -2.200721,-1.17721 -3.070541,-2.04703 -0.539439,-0.53944 -0.341171,-1.70585 -1.023514,-2.04703 -0.915458,-0.45772 -2.077587,0.24824 -3.070541,0 -0.468083,-0.11702 -0.591962,-0.80773 -1.023514,-1.02351 -0.305152,-0.15258 -0.782269,0.24125 -1.023513,0 -0.241245,-0.24124 0.241244,-0.78227 0,-1.02351 -0.241245,-0.24125 -0.718361,0.15257 -1.023514,0 -0.431551,-0.21578 -0.682342,-0.68235 -1.023514,-1.02352 -0.341171,-0.34117 -0.55543,-0.90649 -1.023513,-1.02351 -0.992955,-0.24824 -2.099551,0.32366 -3.070542,0 -0.647327,-0.21578 0.482489,-1.56454 0,-2.04703 -0.482489,-0.48249 -1.564538,0.48249 -2.047027,0 -0.241245,-0.24124 -0.341171,-1.02351 0,-1.02351 0.341171,0 0,0.68234 0,1.02351 3.051531,0.98549 -0.762883,3.59181 0,5.11757 0.215776,0.43155 0.807738,0.59196 1.023514,1.02351 0.15178,0.30356 0,5.15111 0,6.14109"
       id="path3003"
       inkscape:connector-curvature="0" />
    <path
       style="fill:none;stroke:#000000;stroke-width:1px;stroke-linecap:butt;stroke-linejoin:miter;stroke-opacity:1"
       d="m 76.76353,325.66743 c 0,-11.25865 0,-22.5173 0,-33.77595 0,-2.3882 0,-4.7764 0,-7.1646 0,-1.36468 -0.267637,-2.75587 0,-4.09405 0.211585,-1.05793 0.761847,-2.02388 1.023514,-3.07054 0.188893,-0.75557 0,-4.38747 0,-5.11757 0,-0.67237 -0.120341,-3.85337 0,-4.09406 0.152576,-0.30515 0.782269,0.24125 1.023513,0 0.241245,-0.24124 0,-0.68234 0,-1.02351 0,-1.36468 0,-2.72937 0,-4.09405 0,-0.34118 -0.152576,-0.71836 0,-1.02352 0.215776,-0.43155 0.807738,-0.59196 1.023514,-1.02351 0.152576,-0.30515 0,-0.68234 0,-1.02352 0,-0.68234 0,-1.36468 0,-2.04702 0,-6.78914 -0.482489,1.44746 1.023514,-3.07054 0.282565,-0.8477 -0.325448,-4.46668 0,-5.11757 2.34211,-4.68422 -0.424218,4.34319 2.047027,-3.07054 0.215776,-0.64733 -0.215775,-1.3997 0,-2.04703 0.241245,-0.72373 0.782269,-1.3233 1.023514,-2.04703 0.192488,-0.57746 0,-2.39798 0,-3.07054 0,-2.3882 0,-4.7764 0,-7.1646 0,-0.69314 0.155425,-6.69832 0,-7.16459 -0.152576,-0.45773 -0.682343,-0.68234 -1.023514,-1.02352"
       id="path3007"
       inkscape:connector-curvature="0" />
    <path
       style="fill:none;stroke:#000000;stroke-width:1px;stroke-linecap:butt;stroke-linejoin:miter;stroke-opacity:1"
       d="m 113.61002,311.33824 c 0,-22.17613 0,-44.35226 0,-66.52839 0,-4.43523 0,-8.87045 0,-13.30568 0,-1.02351 0,-2.04703 0,-3.07054 0,-0.68234 -0.21577,-1.3997 0,-2.04703 0.24125,-0.72373 0.78227,-1.32329 1.02352,-2.04703 0.40005,-1.20015 -0.56358,-2.9669 0,-4.09405 0.15257,-0.30515 0.78227,0.24124 1.02351,0 0.0329,-0.0329 0,-2.82231 0,-3.07054"
       id="path3009"
       inkscape:connector-curvature="0" />
    <path
       style="fill:none;stroke:#000000;stroke-width:1px;stroke-linecap:butt;stroke-linejoin:miter;stroke-opacity:1"
       d="m 149.433,323.62041 c 0,-16.03505 0,-32.0701 0,-48.10515 0,-3.41171 0,-6.82342 0,-10.23514 0,-0.68234 -0.21577,-1.3997 0,-2.04702 0.15258,-0.45773 0.75588,-0.62206 1.02352,-1.02352 2.25497,-0.51543 0.54102,-2.10556 1.02351,-3.07054 0.21578,-0.43155 0.9065,-0.55543 1.02352,-1.02351 0.33098,-1.32394 0,-2.72937 0,-4.09406 0,-0.34117 -0.24125,-0.78227 0,-1.02351 0.24124,-0.24125 0.78227,0.24124 1.02351,0 0.24124,-0.24125 -0.0828,-0.69253 0,-1.02352 0.26167,-1.04666 0.76185,-2.02387 1.02351,-3.07054 0.51176,-2.04702 -1.02351,0 0,-3.07054 0.15258,-0.45773 0.80774,-0.59196 1.02352,-1.02351 0.17841,-0.35682 0,-5.38974 0,-6.14108 0,-5.45874 0,-10.91748 0,-16.37622"
       id="path3011"
       inkscape:connector-curvature="0" />
    <path
       style="fill:none;stroke:#000000;stroke-width:1px;stroke-linecap:butt;stroke-linejoin:miter;stroke-opacity:1"
       d="m 62.434338,298.03256 c -0.341172,-1.36468 -2.388199,-3.75288 -1.023514,-4.09405 1.364685,-0.34117 1.023514,5.50074 1.023514,4.09405 0,-2.07526 -0.730028,-4.08667 -1.023514,-6.14108 -0.04825,-0.33774 -0.241245,-0.78227 0,-1.02351 0.241244,-0.24125 0.682342,0 1.023514,0 0.341171,0 0.782269,-0.24125 1.023513,0 0.241245,0.24124 -0.241244,0.78227 0,1.02351 0.241245,0.24124 1.079602,-0.33653 1.023514,0 -0.354733,2.1284 0.06883,5.71791 -2.047027,6.14108 -1.950722,0.39015 -2.180876,-3.33823 -3.070542,-5.11757 -0.152576,-0.30515 0,-0.68234 0,-1.02351 0,-0.34117 -0.241244,-0.78227 0,-1.02351 0.241245,-0.24125 0.682343,0 1.023514,0 0.341171,0 0.682343,0 1.023514,0 0.341171,0 0.682342,0 1.023514,0 0.341171,0 0.870937,-0.30516 1.023513,0 0.305153,0.6103 0.0965,1.37154 0,2.04702 -0.756311,5.29418 -0.111811,7.62045 -7.164596,4.09406 -0.610305,-0.30515 0,-1.36469 0,-2.04703 0,-0.46095 -0.155745,-2.75905 0,-3.07054 0.215776,-0.43155 0.591963,-0.80774 1.023514,-1.02351 0.163762,-0.0819 3.029601,-0.0819 3.070541,0 0.305153,0.6103 -0.187454,1.39094 0,2.04702 2.680567,9.38199 2.047028,4.46599 2.047028,0"
       id="path3013"
       inkscape:connector-curvature="0" />
    <path
       style="fill:none;stroke:#000000;stroke-width:1px;stroke-linecap:butt;stroke-linejoin:miter;stroke-opacity:1"
       d="m 165.80922,232.52768 c 0.68235,1.36469 3.41172,3.41172 2.04703,4.09406 -1.36468,0.68234 -3.1259,-5.17293 -2.04703,-4.09406 1.73964,1.73964 2.66409,4.13912 4.09406,6.14109 1.88587,2.64022 0.10183,0.0509 2.04703,1.02351 1.10024,0.55012 2.20072,1.17721 3.07054,2.04703 0.53944,0.53944 0.48407,1.50759 1.02351,2.04703 0.24125,0.24124 0.69253,-0.0828 1.02352,0 1.04666,0.26166 2.10556,0.54102 3.07054,1.02351 0.43155,0.21577 0.55543,0.90649 1.02351,1.02351 0.99295,0.24824 2.09955,-0.32366 3.07054,0 0.32367,0.10789 -0.15257,0.71836 0,1.02352 0.63238,1.26475 0.98819,1.02351 2.04703,1.02351"
       id="path3015"
       inkscape:connector-curvature="0" />
    <path
       style="fill:none;stroke:#000000;stroke-width:1px;stroke-linecap:butt;stroke-linejoin:miter;stroke-opacity:1"
       d="m 169.90328,248.9039 c 0,-2.72937 0,-5.45874 0,-8.18811 0,-0.34117 -0.24125,-0.78227 0,-1.02351 0.24124,-0.24124 0.87094,0.30515 1.02351,0 0.30516,-0.61031 -0.30515,-1.43672 0,-2.04703 0.15258,-0.30515 0.71836,0.15258 1.02352,0 0.43155,-0.21577 0.80773,-0.59196 1.02351,-1.02351 0.64374,-1.28748 -1.46997,-2.04703 1.02351,-2.04703"
       id="path3017"
       inkscape:connector-curvature="0" />
    <path
       style="fill:none;stroke:#000000;stroke-width:1px;stroke-linecap:butt;stroke-linejoin:miter;stroke-opacity:1"
       d="M 60.38731,289.84445 63.457851,278.5858"
       id="path3019"
       inkscape:connector-curvature="0" />
    <path
       style="fill:none;stroke:#000000;stroke-width:1px;stroke-linecap:butt;stroke-linejoin:miter;stroke-opacity:1"
       d="m 67.551906,277.56229 6.141083,-3.07054"
       id="path3021"
       inkscape:connector-curvature="0" />
    <path
       style="fill:none;stroke:#000000;stroke-width:1px;stroke-linecap:butt;stroke-linejoin:miter;stroke-opacity:1"
       d="m 78.810557,273.46823 12.282165,10.23514"
       id="path3023"
       inkscape:connector-curvature="0" />
    <path
       style="fill:none;stroke:#000000;stroke-width:1px;stroke-linecap:butt;stroke-linejoin:miter;stroke-opacity:1"
       d="m 94.163263,289.84445 9.211627,10.23514"
       id="path3025"
       inkscape:connector-curvature="0" />
    <path
       style="fill:none;stroke:#000000;stroke-width:1px;stroke-linecap:butt;stroke-linejoin:miter;stroke-opacity:1"
       d="m 115.65705,300.07959 10.23514,-8.18811"
       id="path3027"
       inkscape:connector-curvature="0" />
    <path
       style="fill:none;stroke:#000000;stroke-width:1px;stroke-linecap:butt;stroke-linejoin:miter;stroke-opacity:1"
       d="m 126.9157,282.67986 0,-8.18811"
       id="path3029"
       inkscape:connector-curvature="0" />
    <path
       style="fill:none;stroke:#000000;stroke-width:1px;stroke-linecap:butt;stroke-linejoin:miter;stroke-opacity:1"
       d="m 126.9157,266.30364 5.11757,-10.23514"
       id="path3031"
       inkscape:connector-curvature="0" />
    <path
       style="fill:none;stroke:#000000;stroke-width:1px;stroke-linecap:butt;stroke-linejoin:miter;stroke-opacity:1"
       d="m 141.24489,252.99796 10.23514,-3.07054"
       id="path3033"
       inkscape:connector-curvature="0" />
    <path
       style="fill:none;stroke:#000000;stroke-width:1px;stroke-linecap:butt;stroke-linejoin:miter;stroke-opacity:1"
       d="m 159.66814,248.9039 8.18811,0"
       id="path3035"
       inkscape:connector-curvature="0" />
    <path
       style="fill:none;stroke:#000000;stroke-width:1px;stroke-linecap:butt;stroke-linejoin:miter;stroke-opacity:1"
       d="m 120.77462,394.24285 c 0,-12.10677 0.91546,-2.37119 -1.02351,-8.18811 -0.10789,-0.32366 0.15257,-0.71836 0,-1.02351 -2.03122,-4.06244 -0.3235,4.5236 -2.04703,-4.09405 -0.13382,-0.6691 0.21577,-1.39971 0,-2.04703 -0.15258,-0.45773 -0.90649,-0.55543 -1.02351,-1.02352 0,-7.2595 0.72373,-0.59956 -1.02352,-4.09405 -0.15257,-0.30515 0,-0.68234 0,-1.02351 0,-0.68235 0.30515,-1.43673 0,-2.04703 -0.15257,-0.30516 -0.78227,0.24124 -1.02351,0 -0.33739,-0.33739 0.24689,-3.35339 0,-4.09406 -0.15258,-0.45773 -0.9065,-0.55543 -1.02352,-1.02351 -0.33098,-1.32394 0,-2.72937 0,-4.09406 0,-2.04702 0,-4.09405 0,-6.14108 0,-0.68234 -0.30515,-1.43672 0,-2.04703 0.15258,-0.30515 0.75058,0.20471 1.02352,0 1.15797,-0.86848 2.20206,-1.91256 3.07054,-3.07054 0.2047,-0.27293 0,-0.68234 0,-1.02351 0,-0.68234 -0.21578,-1.3997 0,-2.04703 0.15258,-0.45773 0.80774,-0.59196 1.02351,-1.02351 0.15258,-0.30515 -0.15257,-0.71836 0,-1.02352 0.21578,-0.43155 0.75588,-0.62205 1.02352,-1.02351 0.42317,-0.63476 0.34117,-1.70586 1.02351,-2.04703 0.91546,-0.45773 2.09955,0.32367 3.07054,0 0.64733,-0.21577 -0.48249,-1.56454 0,-2.04702 0.24125,-0.24125 0.71836,0.15257 1.02352,0 0.43155,-0.21578 0.57553,-0.84433 1.02351,-1.02352 3.65108,-1.46043 7.43811,-1.02351 11.25865,-1.02351 2.3882,0 4.7764,0 7.1646,0 1.02351,0 2.09955,-0.32367 3.07054,0 0.32366,0.10789 -0.15258,0.71836 0,1.02351 0.21577,0.43155 0.80774,0.59196 1.02351,1.02352 0.15258,0.30515 -0.24124,0.78227 0,1.02351 0.24125,0.24124 0.68234,0 1.02351,0 0.34118,0.34117 0.75588,0.62206 1.02352,1.02351 3.44706,5.1706 0.008,0.0237 1.02351,3.07054 0.24125,0.72374 0.68234,1.36469 1.02352,2.04703 0.34117,0.68234 0.68234,1.36469 1.02351,2.04703 0,0.34117 -0.15258,0.71836 0,1.02351 0.21578,0.43155 0.87094,0.56579 1.02351,1.02352 0.002,0.005 -9.7e-4,3.06956 0,3.07054 0.24125,0.24124 0.87094,-0.30515 1.02352,0 0.30515,0.6103 0,1.36468 0,2.04703 0,1.70585 0,3.41171 0,5.11756 0,0.57129 0.15617,4.64905 0,5.11757 -0.15258,0.45773 -0.75588,0.62206 -1.02352,1.02352 -0.42317,0.63475 -0.60034,1.41227 -1.02351,2.04702 -0.53527,0.80291 -1.61548,1.18393 -2.04703,2.04703 -0.15257,0.30515 0.24125,0.78227 0,1.02352 -0.24124,0.24124 -0.78227,-0.24125 -1.02351,0 -0.24125,0.24124 0,0.68234 0,1.02351 0,1.12894 0.15257,2.18847 -1.02352,3.07054 -0.8631,0.64733 -2.30765,0.26063 -3.07054,1.02351 -0.48249,0.48249 0.21578,1.3997 0,2.04703 -1.0649,3.19472 -0.68234,-0.34117 -2.04702,1.02352 -0.24125,0.24124 0.24124,0.78226 0,1.02351 -0.24125,0.24124 -0.78227,-0.24125 -1.02352,0 -0.53944,0.53944 -0.60034,1.41227 -1.02351,2.04703 -0.26764,0.40145 -0.68234,0.68234 -1.02352,1.02351 -0.34117,0.34117 -0.59196,0.80774 -1.02351,1.02351 -0.30515,0.15258 -0.71836,-0.15257 -1.02351,0 -1.22822,0.61411 -1.84233,2.45644 -3.07054,3.07054 -0.30516,0.15258 -0.87094,-0.30515 -1.02352,0 -0.30515,0.61031 0.30516,1.43673 0,2.04703 -0.15257,0.30516 -0.78227,-0.24124 -1.02351,0 -0.24125,0.24125 0.15258,0.71836 0,1.02352 -0.21578,0.43155 -0.68234,0.68234 -1.02351,1.02351 -0.34118,0.34117 -0.59197,0.80774 -1.02352,1.02351 -0.30515,0.15258 -0.78227,-0.24124 -1.02351,0 -0.48249,0.48249 0.30515,1.43673 0,2.04703 -0.21578,0.43155 -0.80774,0.59196 -1.02352,1.02351 -0.15257,0.30516 0.24125,0.78227 0,1.02352 -0.24124,0.24124 -0.78227,-0.24125 -1.02351,0 -1.36468,1.36468 1.70586,1.02351 -1.02351,1.02351"
       id="path3037"
       inkscape:connector-curvature="0" />
    <path
       style="fill:none;stroke:#000000;stroke-width:1px;stroke-linecap:butt;stroke-linejoin:miter;stroke-opacity:1"
       d="m 133.05679,351.25528 c -0.68235,1.70585 -1.46604,3.37458 -2.04703,5.11757 -0.21496,0.64486 0,5.35972 0,6.14108 0,0.68234 0,1.36468 0,2.04703 0,0.34117 -0.24125,0.78226 0,1.02351 0.24124,0.24124 0.68234,0 1.02351,0 0.34117,0 0.68234,0 1.02352,0 1.02351,0 2.04702,0 3.07054,0 1.4459,0 6.45296,0.17791 7.16459,0 0.33099,-0.0828 -0.24124,-0.78227 0,-1.02351 0.24125,-0.24125 0.68897,0.0669 1.02352,0 1.37936,-0.27588 2.83587,-0.39443 4.09405,-1.02352 0.30515,-0.15257 -0.24124,-0.78227 0,-1.02351 0.24125,-0.24125 0.78227,0.24124 1.02351,0 0.24125,-0.24125 0,-0.68234 0,-1.02352 0,-0.34117 0,-0.68234 0,-1.02351 0,-1.70586 0,-3.41171 0,-5.11757 0,-0.34117 0.28388,-0.83426 0,-1.02351 -0.89768,-0.59846 -2.17286,-0.42506 -3.07054,-1.02352 -0.28387,-0.18924 0,-0.68234 0,-1.02351 -0.34117,-0.34117 -0.59196,-0.80774 -1.02351,-1.02351 -0.61031,-0.30516 -1.74187,0.6103 -2.04703,0 -0.30515,-0.61031 0.30516,-1.43672 0,-2.04703 -0.15257,-0.30515 -0.68234,0 -1.02351,0 -1.02352,0 -2.04703,0 -3.07054,0 -0.68235,0 -1.41349,-0.25342 -2.04703,0 -1.41664,0.56665 -2.72937,1.36468 -4.09405,2.04703 z"
       id="path3039"
       inkscape:connector-curvature="0" />
    <path
       style="fill:none;stroke:#000000;stroke-width:1px;stroke-linecap:butt;stroke-linejoin:miter;stroke-opacity:1"
       d="m 251.78438,131.19982 c 5.45893,4.0942 3.96034,3.23474 11.25865,7.1646 2.01509,1.08505 4.02848,2.19029 6.14108,3.07054 1.99178,0.82991 4.07433,1.427 6.14108,2.04703 2.88547,0.86564 4.48926,0.90045 7.1646,2.04703 1.4024,0.60102 2.87344,1.13157 4.09405,2.04702 0.27294,0.20471 -0.33454,0.95661 0,1.02352 1.67273,0.33454 3.48366,-0.49018 5.11757,0 1.90546,0.57163 3.2705,2.33171 5.11757,3.07054 1.61522,0.64608 3.48267,0.429 5.11757,1.02351 2.61691,0.95161 6.08609,3.57314 9.21162,4.09406 1.00959,0.16826 2.09956,-0.32367 3.07055,0 0.32366,0.10789 -0.29622,0.85424 0,1.02351 2.25594,1.28911 4.73174,2.15822 7.16459,3.07054 0.31945,0.1198 0.68234,0 1.02352,0 1.02351,0 2.0864,-0.28118 3.07054,0 1.46706,0.41916 2.66543,1.5113 4.09405,2.04703 8.48584,3.18219 0.21436,-0.36653 7.1646,1.02351 0.74806,0.14962 1.32329,0.78227 2.04702,1.02352 1.3345,0.44483 2.72937,0.68234 4.09406,1.02351 4.42504,1.10626 4.09405,-0.38317 4.09405,2.04703 4.6618,-6.9927 4.09406,-3.68086 4.09406,-9.21162 0,-0.34118 -0.17553,-0.73097 0,-1.02352 0.87766,-1.46276 2.30766,-2.56829 3.07054,-4.09405 0.61031,-1.22061 -0.75699,-2.95857 0,-4.09406 1.07055,-1.60582 3.02351,-2.48823 4.09406,-4.09405 0.37849,-0.56775 -0.25342,-1.41349 0,-2.04703 0.45685,-1.14213 1.59017,-1.92841 2.04702,-3.07054 0.25342,-0.63354 -0.35106,-1.46193 0,-2.04703 0.74472,-1.24119 2.32583,-1.82935 3.07054,-3.07054 0.35107,-0.5851 -0.48248,-1.56454 0,-2.04703 1.07888,-1.07888 3.01518,-0.96815 4.09406,-2.04703 0.48249,-0.48248 -0.21578,-1.3997 0,-2.04702 -0.38256,-2.22974 1.70586,-0.34117 2.04703,-1.02352 0.30515,-0.6103 -0.35107,-1.46192 0,-2.04702 0.74471,-1.2412 2.20206,-1.91257 3.07054,-3.07055 0.2047,-0.27293 -0.18925,-0.73964 0,-1.02351 1.21177,-1.81766 3.11709,-3.16364 4.09405,-5.11757 0.12626,-0.25252 -0.11893,-5.54644 0,-6.14108 0.14962,-0.74807 0.83849,-1.30692 1.02352,-2.04703 0.16549,-0.66197 -0.21578,-1.3997 0,-2.04702 0.15257,-0.45773 0.80773,-0.59197 1.02351,-1.02352 0.15258,-0.30515 -0.15258,-0.71836 0,-1.02351 0.21578,-0.43155 0.80774,-0.59196 1.02351,-1.02352 0.15258,-0.30515 -0.24124,-0.78227 0,-1.02351 0.24125,-0.24124 0.78227,0.24124 1.02352,0 0.24124,-0.24124 -0.18925,-0.73964 0,-1.02351 0.53527,-0.80291 1.51175,-1.24412 2.04703,-2.047031 0.18924,-0.283872 0,-0.682342 0,-1.023514 0,-0.341171 0,-0.682342 0,-1.023513 0,-3.070542 0,-6.141083 0,-9.211624"
       id="path3041"
       inkscape:connector-curvature="0" />
    <path
       style="fill:none;stroke:#000000;stroke-width:1px;stroke-linecap:butt;stroke-linejoin:miter;stroke-opacity:1"
       d="m 254.85492,119.94117 c 8.12524,-1.14629 0.42871,-6.51442 2.04703,-9.21162 0.74471,-1.24119 2.32582,-1.82935 3.07054,-3.07054 0.35106,-0.5851 -0.40941,-1.50115 0,-2.04703 0.73806,-0.98409 2.33247,-1.06294 3.07054,-2.04703 0.4094,-0.54587 0,-1.36468 0,-2.04702 0.34117,-0.68235 0.53513,-1.46097 1.02351,-2.047031 1.23553,-1.482633 2.97229,-2.523585 4.09406,-4.094055 0.62708,-0.877919 0.42506,-2.17286 1.02351,-3.070541 0.18925,-0.283872 0.87094,0.305153 1.02351,0 0.62909,-1.258177 0.24323,-2.923622 1.02352,-4.094055 0.68234,-1.023514 2.20072,-1.177208 3.07054,-2.047027 0.24124,-0.241245 -0.24124,-0.78227 0,-1.023514 0.24124,-0.241245 0.68234,0 1.02351,0 1.02352,0 2.04703,0 3.07054,0 1.02352,0 2.34681,0.723733 3.07055,0 1.68323,-1.68323 -0.79688,-3.757743 -1.02352,-5.117569 -0.22435,-1.346117 0,-2.72937 0,-4.094055 0,-2.72937 0,-5.45874 0,-8.18811 0,-0.404608 -0.21856,-4.680442 0,-5.117568 2.12981,-4.259619 -0.0707,1.094172 2.04703,-1.023514 0.24124,-0.241244 -0.15258,-0.718361 0,-1.023514 0.21578,-0.431551 0.75588,-0.622058 1.02351,-1.023513 1.56812,-2.352181 0.0853,-2.047028 2.04703,-2.047028"
       id="path3043"
       inkscape:connector-curvature="0" />
    <path
       style="fill:none;stroke:#000000;stroke-width:1px;stroke-linecap:butt;stroke-linejoin:miter;stroke-opacity:1"
       d="m 301.93655,58.53035 c 3.83023,0.611179 7.64922,1.626768 11.25865,3.070541 4.64859,-0.639214 6.72914,3.614999 10.23514,5.117569 3.67043,1.57304 7.47027,2.83126 11.25865,4.094055 1.3345,0.444832 2.72937,0.682342 4.09405,1.023513 2.04703,0.682343 4.11324,1.30963 6.14109,2.047028 1.72665,0.627872 3.37458,1.466034 5.11757,2.047027 1.33449,0.444833 2.7015,0.824579 4.09405,1.023514 1.01323,0.144747 2.09955,-0.323663 3.07054,0 0.32367,0.107888 -0.30515,0.870937 0,1.023514 1.25818,0.629088 2.7415,0.637067 4.09406,1.023513 2.07473,0.592782 4.02523,1.623857 6.14108,2.047028 0.66909,0.133818 1.3997,-0.215776 2.04703,0 1.44746,0.482489 2.67742,1.480373 4.09405,2.047027 0.31677,0.126708 0.69253,-0.08275 1.02352,0 1.04666,0.261667 2.02387,0.761848 3.07054,1.023514 0.33098,0.08275 0.68234,0 1.02351,0 1.02351,0.341171 2.04703,0.682343 3.07054,1.023514"
       id="path3045"
       inkscape:connector-curvature="0" />
    <path
       style="fill:none;stroke:#000000;stroke-width:1px;stroke-linecap:butt;stroke-linejoin:miter;stroke-opacity:1"
       d="m 269.18411,127.10577 c 11.00071,-2.20014 2.0877,0.98284 6.14108,-3.07054 0.24125,-0.24125 0.68235,0 1.02352,0 2.72937,0 5.45874,0 8.18811,0 1.1388,0 6.592,-0.19087 7.16459,0 0.32367,0.10789 -0.32366,0.91562 0,1.02351 0.97099,0.32367 2.04703,0 3.07054,0 0.34118,0 0.71837,-0.15257 1.02352,0 0.8631,0.43155 1.18392,1.61548 2.04703,2.04703 0.30515,0.15258 0.78226,-0.24124 1.02351,0 0.53944,0.53944 0.48407,1.50759 1.02351,2.04703 0.24125,0.24124 0.68235,0 1.02352,0 1.02351,0.68234 2.20072,1.17721 3.07054,2.04702 0.48249,0.48249 -0.30515,1.43673 0,2.04703 0.21577,0.43155 0.59196,0.80774 1.02351,1.02352 0.30515,0.15257 0.87094,-0.30516 1.02352,0 0.30515,0.6103 -0.30516,1.43672 0,2.04702 0.15257,0.30516 0.78226,-0.24124 1.02351,0 0.24124,0.24125 -0.24125,0.78227 0,1.02352 0.24124,0.24124 0.71836,-0.15258 1.02351,0 1.26476,0.63238 1.02352,0.98818 1.02352,2.04702 1.37922,-5.02753 6.28898,-3.16914 9.21162,-5.11756 0.28387,-0.18925 -0.10789,-0.69985 0,-1.02352 0.24124,-0.72373 0.78227,-1.32329 1.02351,-2.04703 0.10789,-0.32366 -0.15257,-0.71836 0,-1.02351 0.21578,-0.43155 0.80774,-0.59196 1.02352,-1.02351 0.48249,-0.96498 0.42506,-2.17286 1.02351,-3.07054 0.18925,-0.28388 0.78227,0.24124 1.02352,0 0.24124,-0.24125 -0.10789,-0.69985 0,-1.02352 0.24124,-0.72373 0.48407,-1.50759 1.02351,-2.04703 0.24124,-0.24124 0.78227,0.24125 1.02351,0 0.24125,-0.24124 -0.24124,-0.78226 0,-1.02351 0.86982,-0.86982 2.20072,-1.17721 3.07054,-2.04703 0.24125,-0.24124 -0.24124,-0.78227 0,-1.02351 0.86982,-0.86982 2.20073,-1.17721 3.07055,-2.04703 0.24124,-0.24124 -0.24125,-0.78227 0,-1.02351 1.36468,-1.36469 0.98212,2.1712 2.04702,-1.02351 0.21578,-0.64733 -0.30515,-1.43673 0,-2.04703 0.15258,-0.30516 0.68235,0 1.02352,0 1.02351,0 2.09955,0.32366 3.07054,0 0.32366,-0.10789 -0.24125,-0.78227 0,-1.02352 0.24124,-0.24124 0.71836,0.15258 1.02351,0 1.10025,-0.55012 2.20072,-1.1772 3.07054,-2.04702 1.36469,-1.36469 -1.70585,-1.02352 1.02352,-1.02352 0,1.3799 -1.06804,7.12008 1.02351,9.21163 0.24124,0.24124 0.87094,-0.30516 1.02351,0 0.61031,1.22061 -0.43155,2.7994 0,4.09405 0.15258,0.45773 0.80774,0.59196 1.02352,1.02351 0.15257,0.30516 -0.24125,0.78227 0,1.02352 0.24124,0.24124 0.87093,-0.30515 1.02351,0 0.30515,0.6103 -0.21577,1.3997 0,2.04703 0.15258,0.45773 0.80774,0.59196 1.02351,1.02351 0.15258,0.30515 -0.24124,0.78227 0,1.02351 0.24125,0.24125 0.68235,0 1.02352,0 0.34117,0 0.68234,0 1.02351,0 2.59162,0.0969 4.71463,-1.6387 7.1646,-2.04702 1.00959,-0.16827 2.09955,0.32366 3.07054,0 0.32366,-0.10789 -0.24124,-0.78227 0,-1.02352 0.53944,-0.53944 1.36468,-0.68234 2.04703,-1.02351"
       id="path3047"
       inkscape:connector-curvature="0" />
    <path
       style="fill:none;stroke:#000000;stroke-width:1px;stroke-linecap:butt;stroke-linejoin:miter;stroke-opacity:1"
       d="m 300.91304,86.165221 c -1.49657,-0.498857 -7.7174,-2.505685 -8.18811,-3.070542 -0.87365,-1.04838 0,-2.72937 0,-4.094055 0,-1.023513 -0.32367,-2.09955 0,-3.070541 0.15257,-0.457729 0.75587,-0.622058 1.02351,-1.023513 0.42317,-0.634757 0.48408,-1.507589 1.02351,-2.047028 0.24125,-0.241244 0.68235,0 1.02352,0 0.34117,0 0.68234,0 1.02351,0 0.46095,0 2.75905,-0.155745 3.07054,0 0.43155,0.215776 0.63753,0.73402 1.02352,1.023514 0.98409,0.738066 2.20072,1.177208 3.07054,2.047027 0.24124,0.241245 0,0.682343 0,1.023514 0,1.064377 0.20128,5.335969 0,6.141082 -0.18503,0.740105 -0.83849,1.306924 -1.02352,2.047028 -0.16549,0.661969 0.30516,1.436722 0,2.047027 -0.15257,0.305153 -0.68234,0 -1.02351,0 -0.68234,0 -1.42349,0.277126 -2.04703,0 -2.51354,-1.117128 -5.21962,-2.149079 -7.16459,-4.094055 -4.93793,-4.937928 -0.7157,-2.970483 0,-5.117568 0.21577,-0.647327 0,-1.364685 0,-2.047028 0.34117,0 0.78227,0.241245 1.02351,0 1.36469,-1.364685 -1.70586,-1.023513 1.02351,-1.023513 2.04703,0 4.09406,0 6.14109,0 0.34117,0 0.68234,0 1.02351,0 0.34117,0 0.71836,-0.152577 1.02351,0 0.43156,0.215775 0.59197,0.807738 1.02352,1.023513 0.6103,0.305153 1.43672,-0.305153 2.04703,0 0.43155,0.215776 0.68234,0.682343 1.02351,1.023514 1.02351,1.023514 1.91257,2.202061 3.07054,3.070541 0.27294,0.204703 0.78227,-0.241244 1.02351,0 0.24125,0.241245 0,0.682343 0,1.023514 0,1.364685 0,2.72937 0,4.094055 0,0.682342 0,1.364685 0,2.047027 0,0.341172 0.15258,0.718361 0,1.023514 -0.84107,1.682143 -2.67959,1.104053 -4.09405,2.047027 -0.28387,0.189248 0.32366,0.915626 0,1.023514 -0.97099,0.323664 -2.04703,0 -3.07054,0 -1.36469,0 -2.72937,0 -4.09406,0 -0.68234,0 -1.36468,0 -2.04702,0 -1.36469,0 -2.79941,0.431552 -4.09406,0 -3.69766,-1.232555 -1.533,-6.009248 -1.02351,-8.18811 2.30949,-17.881113 12.94391,-4.394036 11.25865,-1.023513 -0.76288,1.525764 -4.01678,2.674697 -3.07054,4.094055 0.96498,1.447466 3.37793,-1.023514 5.11757,-1.023514 0.34117,0 0.33454,0.956604 0,1.023514 -1.67273,0.334546 -3.4554,0.383578 -5.11757,0 -2.84032,-0.655459 -6.8845,-0.463315 -8.18811,-3.070542 -0.97697,-1.953931 2.1844,-4.056651 4.09405,-5.117568 0.4046,-0.224776 6.04068,-0.662359 7.1646,1.023513 0.37849,0.567744 -0.48249,1.564539 0,2.047028 3.3942,3.394205 3.07054,-0.770926 3.07054,2.047027 0,0.631185 0.30515,3.872611 -1.02351,4.094055 -2.14769,0.357949 -13.2546,-3.685392 -13.30568,-4.094055 -0.83008,-6.640635 11.54391,-5.486694 14.32919,-4.094055 0.30515,0.152577 0,0.682343 0,1.023514 0,2.047028 0,4.094055 0,6.141083 0,0.682342 0.21577,1.3997 0,2.047027 -0.15258,0.457729 -0.56579,1.17609 -1.02351,1.023514 -1.88727,-0.629089 -3.16685,-2.680397 -5.11757,-3.070541 -1.70586,-0.341171 -3.4887,1.634342 -5.11757,1.023513 -1.59724,-0.598966 -3.83342,-2.568291 -3.07054,-4.094055 1.51535,-3.030695 7.80466,-4.957552 11.25865,-4.094055 0.33098,0.08275 -0.2047,0.750577 0,1.023514 3.79968,5.066245 3.07054,1.013556 3.07054,6.141083 0,0.341171 0.15258,0.71836 0,1.023513 -1.42543,2.850853 -3.99208,-0.808613 -6.14108,-1.023513 -1.73101,-0.173101 -3.4887,1.634342 -5.11757,1.023513 -1.59724,-0.598966 -4.06205,-2.705943 -3.07054,-4.094055 2.05333,-2.874665 10.82668,-4.382036 14.32919,-2.047027 0.28387,0.189248 0,0.682342 0,1.023514 0,0.682342 0,1.364685 0,2.047027 0,1.023514 0,2.047028 0,3.070541 0,0.341172 0.33653,1.079602 0,1.023514 -2.1284,-0.354733 -3.99219,-1.851673 -6.14108,-2.047027 -1.7325,-0.1575 -3.4887,1.634342 -5.11757,1.023513 -1.59724,-0.598966 -3.74251,-2.526126 -3.07054,-4.094055 1.04079,-2.428502 7.62149,-3.817295 10.23513,-3.070541 1.18278,0.337938 2.33248,1.062939 3.07055,2.047028 0.4094,0.545874 0,1.364685 0,2.047027 0,0.682343 0,1.364685 0,2.047028 0,0.341171 0.34117,1.023513 0,1.023513 -3.40933,10e-7 -8.43288,-0.615563 -5.11757,-6.141082 0.69229,-1.15383 4.49634,0.402285 5.11757,1.023514 0.24124,0.241244 -0.24125,0.782269 0,1.023513 0.24124,0.241245 0.78226,-0.241244 1.02351,0 0.0872,0.08716 0.16934,2.562513 0,3.070542 -0.24125,0.723733 -0.26063,2.047027 -1.02351,2.047027 -1.83727,0 -3.40277,-1.387488 -5.11757,-2.047027 -2.72067,-1.046413 -6.8845,-0.463315 -8.18811,-3.070542 -0.88967,-1.77933 3.33824,-2.180875 5.11757,-3.070541 1.48367,-0.741838 4.41825,-1.597788 6.14108,-1.023514 0.32366,0.107888 -0.2047,0.750577 0,1.023514 3.48628,4.648382 3.07054,1.309318 3.07054,5.117569 0,0.682342 0,1.364685 0,2.047027 0,0.341172 0.15258,0.718361 0,1.023514 -0.21578,0.431551 -0.56579,1.17609 -1.02351,1.023514 -4.54895,-1.516316 -6.36853,-3.942428 -8.18811,-8.18811 -0.26879,-0.627172 0,-1.364685 0,-2.047028 0,-1.470817 -0.30516,-1.576591 2.04702,-2.047027 1.00364,-0.200728 2.21893,-0.567743 3.07054,0 1.41936,0.946239 2.30766,2.568291 3.07055,4.094055 0.30515,0.610306 0,1.364685 0,2.047027 0,3.017752 0.31677,0.05147 -5.11757,3.070542 -1.49119,0.828437 -2.43913,2.65681 -4.09406,3.070541 -4.42503,1.106258 -4.09405,-0.153443 -4.09405,-2.047028 0,-1.364685 -0.87365,-3.045675 0,-4.094055 2.02263,-2.427151 5.53386,-2.047027 8.18811,-2.047027 1.70585,0 3.53372,-0.633539 5.11757,0 0.63353,0.253416 -0.40941,1.501153 0,2.047027 0.73806,0.984089 2.20072,1.177208 3.07054,2.047028 1.40482,1.404823 -1.8062,1.023514 -2.04703,1.023514"
       id="path3049"
       inkscape:connector-curvature="0" />
    <path
       style="fill:none;stroke:#000000;stroke-width:1px;stroke-linecap:butt;stroke-linejoin:miter;stroke-opacity:1"
       d="m 321.38331,159.85821 c -1.97097,-6.10306 -7.18361,1.52576 -10.23514,0 -0.30515,-0.15258 0.31677,-0.89681 0,-1.02351 -3.93287,-1.57315 -10.18187,-1.02352 -14.32919,-1.02352 -1.36468,0 -2.74794,0.22435 -4.09405,0 -0.75251,-0.12542 -1.3233,-0.78227 -2.04703,-1.02351 -0.32366,-0.10789 -0.68234,0 -1.02351,0 -0.68235,0 -1.36469,0 -2.04703,0 -1.36469,0 -2.72937,0 -4.09406,0 -3.07054,0 -6.14108,0 -9.21162,0 -10.57631,0 -21.15262,0 -31.72893,0"
       id="path3051"
       inkscape:connector-curvature="0" />
    <path
       style="fill:none;stroke:#000000;stroke-width:1px;stroke-linecap:butt;stroke-linejoin:miter;stroke-opacity:1"
       d="m 242.57275,152.69361 c 0,-14.67036 0,-29.34072 0,-44.01109 0,-3.41171 0,-6.82342 0,-10.235135 0,-1.364685 0.33099,-2.770116 0,-4.094055 -0.11702,-0.468083 -0.87093,-0.565784 -1.02351,-1.023513 -1.02351,-3.070542 0.51176,-1.023514 0,-3.070542 -0.26167,-1.046665 -0.81193,-2.012614 -1.02351,-3.070541 -0.008,-0.03941 0.005,-3.065524 0,-3.070541 -2.11769,-2.117686 0.0828,3.236105 -2.04703,-1.023514 -0.15258,-0.305152 0,-0.682342 0,-1.023513 0,-0.341172 0,-0.682343 0,-1.023514 0,-3.411713 0,-6.823425 0,-10.235137"
       id="path3053"
       inkscape:connector-curvature="0" />
    <path
       style="fill:none;stroke:#000000;stroke-width:1px;stroke-linecap:butt;stroke-linejoin:miter;stroke-opacity:1"
       d="m 246.66681,69.789001 c 5.79991,0 11.59982,0 17.39973,0 1.02352,0 2.04703,0 3.07054,0 0.68235,0 1.37794,-0.133818 2.04703,0 1.05793,0.211585 2.00634,0.846147 3.07054,1.023514 2.01918,0.336529 4.12191,-0.33653 6.14108,0 1.0642,0.177366 2.04703,0.682342 3.07055,1.023513"
       id="path3055"
       inkscape:connector-curvature="0" />
    <path
       style="fill:none;stroke:#000000;stroke-width:1px;stroke-linecap:butt;stroke-linejoin:miter;stroke-opacity:1"
       d="m 352.08872,70.812515 c 4.43523,0 8.87046,0 13.30568,0 7.22232,1.658097 0.1537,5.578651 1.02352,8.188109 0.24124,0.723734 0.78226,1.323294 1.02351,2.047028 0.10789,0.323663 -0.24125,0.782269 0,1.023514 1.36468,1.364685 1.02351,-1.705857 1.02351,1.023513"
       id="path3057"
       inkscape:connector-curvature="0" />
    <path
       style="fill:none;stroke:#000000;stroke-width:1px;stroke-linecap:butt;stroke-linejoin:miter;stroke-opacity:1"
       d="m 368.46494,130.17631 c 0,5.79991 0,11.59982 0,17.39973 0,0.64184 0.12643,3.96763 0,4.09406 -0.24124,0.24124 -0.87093,-0.30515 -1.02351,0 -0.0801,0.16014 0,4.83142 0,5.11757 0,0.34117 0.32366,0.91562 0,1.02351 -0.97099,0.32367 -2.04703,0 -3.07054,0 -0.68234,0 -1.36469,0 -2.04703,0 -2.72937,0 -5.45874,0 -8.18811,0 -1.36468,0 -2.72937,0 -4.09405,0 -0.34118,0 -0.78227,-0.24124 -1.02352,0 -1.36468,1.36469 1.70586,1.02352 -1.02351,1.02352"
       id="path3059"
       inkscape:connector-curvature="0" />
  </g>
</svg>
